<svg width="56" height="56" viewBox="0 0 56 56" fill="none" xmlns="http://www.w3.org/2000/svg">
<path d="M48.2125 1.20312H7.7875C4.15625 1.20312 1.20312 4.15625 1.20312 7.7875V48.2016C1.20312 51.8438 4.15625 54.7969 7.7875 54.7969H48.2016C51.8328 54.7969 54.7859 51.8438 54.7859 48.2125V7.7875C54.7969 4.15625 51.8438 1.20312 48.2125 1.20312ZM50.3344 48.2125C50.3344 49.3828 49.3828 50.3344 48.2125 50.3344H7.7875C6.61719 50.3344 5.66563 49.3828 5.66563 48.2125V7.7875C5.66563 6.61719 6.61719 5.66563 7.7875 5.66563H48.2016C49.3719 5.66563 50.3234 6.61719 50.3234 7.7875V48.2125H50.3344Z" fill="#999999" stroke="#999999" stroke-width="0.390625"/>
<path d="M25.7812 12.9889V42.1442C25.7812 42.6873 25.3436 43.125 24.7924 43.125H18.9889C18.4377 43.125 18 42.6873 18 42.1442V12.9889C18 12.4458 18.4377 12 18.9889 12H24.7924C25.3436 12 25.7812 12.4377 25.7812 12.9889Z" fill="#999999"/>
<path d="M37.7611 43.125H31.9576C31.4146 43.125 30.9688 42.6873 30.9688 42.1442V12.9889C30.9688 12.4458 31.4064 12 31.9576 12H37.7611C38.3042 12 38.75 12.4377 38.75 12.9889V42.1442C38.75 42.6873 38.3123 43.125 37.7611 43.125Z" fill="#999999"/>
</svg>
