<svg width="54" height="54" viewBox="0 0 54 54" fill="none" xmlns="http://www.w3.org/2000/svg">
<path d="M41.0297 24.6685L20.5109 10.3841C19.4172 9.57476 17.1641 9.97945 17 12.2216V40.7904C17.1203 43.4373 19.7016 43.2841 20.5109 42.6279L41.0297 28.3435C41.7625 27.8951 42.8016 26.156 41.0297 24.6685ZM21.4625 36.5138V16.4982L35.8344 26.506L21.4625 36.5138Z" fill="#999999" stroke="#999999" stroke-width="0.390625"/>
<path d="M47.2125 0.203125H6.7875C3.15625 0.203125 0.203125 3.15625 0.203125 6.7875V47.2016C0.203125 50.8438 3.15625 53.7969 6.7875 53.7969H47.2016C50.8328 53.7969 53.7859 50.8438 53.7859 47.2125V6.7875C53.7969 3.15625 50.8438 0.203125 47.2125 0.203125ZM49.3344 47.2125C49.3344 48.3828 48.3828 49.3344 47.2125 49.3344H6.7875C5.61719 49.3344 4.66563 48.3828 4.66563 47.2125V6.7875C4.66563 5.61719 5.61719 4.66563 6.7875 4.66563H47.2016C48.3719 4.66563 49.3234 5.61719 49.3234 6.7875V47.2125H49.3344Z" fill="#999999" stroke="#999999" stroke-width="0.390625"/>
</svg>
