<svg width="58" height="63" viewBox="0 0 58 63" fill="none" xmlns="http://www.w3.org/2000/svg">
<g filter="url(#filter0_d_21_31)">
<path d="M29.1866 18.375C31.0903 18.375 32.9512 18.9395 34.534 19.9971C36.1168 21.0547 37.3505 22.5579 38.079 24.3167C38.8074 26.0754 38.9981 28.0107 38.6267 29.8777C38.2553 31.7448 37.3386 33.4598 35.9925 34.8059C34.6464 36.152 32.9314 37.0687 31.0644 37.4401C29.1973 37.8114 27.262 37.6208 25.5033 36.8923C23.7445 36.1638 22.2413 34.9302 21.1837 33.3474C20.1261 31.7645 19.5616 29.9036 19.5616 28C19.5645 25.4482 20.5795 23.0017 22.3839 21.1973C24.1883 19.3929 26.6348 18.3779 29.1866 18.375ZM29.1866 34.125C30.398 34.125 31.5822 33.7658 32.5895 33.0928C33.5967 32.4197 34.3818 31.4631 34.8454 30.3439C35.309 29.2247 35.4303 27.9932 35.1939 26.8051C34.9576 25.6169 34.3742 24.5256 33.5176 23.669C32.661 22.8124 31.5697 22.229 30.3815 21.9927C29.1934 21.7564 27.9619 21.8777 26.8427 22.3412C25.7235 22.8048 24.7669 23.5899 24.0939 24.5971C23.4208 25.6044 23.0616 26.7886 23.0616 28C23.0634 29.6239 23.7093 31.1807 24.8576 32.329C26.0059 33.4773 27.5627 34.1232 29.1866 34.125Z" fill="#999999"/>
<path d="M5.17343 35.2536L8.64827 32.3932C8.03227 29.4968 8.03227 26.5032 8.64827 23.6068L5.17343 20.7464C4.77266 20.418 4.50187 19.9577 4.40956 19.4479C4.31725 18.938 4.40945 18.412 4.66965 17.964L8.23658 11.7861C8.49444 11.3366 8.90396 10.9937 9.39173 10.8187C9.87951 10.6437 10.4137 10.6482 10.8984 10.8313L15.1161 12.4114C17.3132 10.4264 19.9052 8.92827 22.722 8.01544L23.462 3.57799C23.5458 3.06658 23.809 2.60174 24.2044 2.26676C24.5998 1.93179 25.1016 1.74859 25.6198 1.75H32.7534C33.2716 1.74861 33.7734 1.9318 34.1688 2.26675C34.5642 2.6017 34.8274 3.0665 34.9112 3.57788L35.6508 8.01544C38.4676 8.92824 41.0596 10.4263 43.2567 12.4114L47.4748 10.8311C47.9595 10.6481 48.4936 10.6437 48.9813 10.8187C49.469 10.9937 49.8784 11.3366 50.1363 11.786L53.7031 17.9643C53.9633 18.4124 54.0554 18.9384 53.963 19.4482C53.8706 19.958 53.5997 20.4183 53.1989 20.7466L49.7244 23.6068C50.3404 26.5032 50.3404 29.4968 49.7244 32.3932L53.1992 35.2536C53.6 35.582 53.8708 36.0423 53.9631 36.5521C54.0554 37.0619 53.9633 37.588 53.7031 38.036L50.1362 44.2139C49.8783 44.6633 49.4688 45.0063 48.981 45.1813C48.4932 45.3562 47.9591 45.3518 47.4743 45.1687L43.2566 43.5886C41.0595 45.5737 38.4675 47.0718 35.6507 47.9846L34.9111 52.422C34.8273 52.9334 34.5641 53.3982 34.1687 53.7332C33.7734 54.0681 33.2716 54.2514 32.7534 54.25H25.6198C25.1016 54.2514 24.5998 54.0682 24.2044 53.7333C23.809 53.3983 23.5458 52.9335 23.462 52.4221L22.7223 47.9846C19.9055 47.0717 17.3135 45.5736 15.1164 43.5886L10.8984 45.1689C10.4137 45.3519 9.87962 45.3563 9.39192 45.1813C8.90423 45.0063 8.49477 44.6634 8.23691 44.214L4.6703 38.0357C4.41008 37.5878 4.3178 37.0619 4.40999 36.5521C4.50218 36.0423 4.77281 35.5821 5.17343 35.2536ZM10.7117 41.5011L15.9737 39.5298L16.7705 40.3319C18.9627 42.5416 21.7048 44.1263 24.7138 44.9227L25.8076 45.211L26.7312 50.75H31.6411L32.5644 45.211L33.6582 44.9227C36.6672 44.1263 39.4093 42.5416 41.6015 40.3319L42.3983 39.5298L47.6611 41.5011L50.1156 37.249L45.7812 33.6807L46.0765 32.5899C46.8886 29.5839 46.8886 26.4161 46.0765 23.4101L45.7812 22.3194L50.1156 18.7511L47.6606 14.4989L42.3987 16.4702L41.6019 15.6681C39.4096 13.4584 36.6675 11.8737 33.6585 11.0773L32.5648 10.789L31.6415 5.25H26.7312L25.8079 10.789L24.7141 11.0773C21.7051 11.8737 18.963 13.4584 16.7708 15.6681L15.974 16.4702L10.7121 14.4989L8.25693 18.751L12.5914 22.3194L12.296 23.4101C11.4839 26.4161 11.4839 29.5839 12.296 32.5899L12.5914 33.6807L8.25693 37.2489L10.7117 41.5011Z" fill="#999999"/>
</g>
<defs>
<filter id="filter0_d_21_31" x="-4" y="0" width="64" height="64" filterUnits="userSpaceOnUse" color-interpolation-filters="sRGB">
<feFlood flood-opacity="0" result="BackgroundImageFix"/>
<feColorMatrix in="SourceAlpha" type="matrix" values="0 0 0 0 0 0 0 0 0 0 0 0 0 0 0 0 0 0 127 0" result="hardAlpha"/>
<feOffset dy="4"/>
<feGaussianBlur stdDeviation="2"/>
<feComposite in2="hardAlpha" operator="out"/>
<feColorMatrix type="matrix" values="0 0 0 0 0 0 0 0 0 0 0 0 0 0 0 0 0 0 0.25 0"/>
<feBlend mode="normal" in2="BackgroundImageFix" result="effect1_dropShadow_21_31"/>
<feBlend mode="normal" in="SourceGraphic" in2="effect1_dropShadow_21_31" result="shape"/>
</filter>
</defs>
</svg>
