<svg width="55" height="59" viewBox="0 0 55 59" fill="none" xmlns="http://www.w3.org/2000/svg">
<g filter="url(#filter0_d_21_31)">
<path d="M27.1018 17.0625C28.8695 17.0625 30.5975 17.5867 32.0673 18.5687C33.537 19.5508 34.6826 20.9467 35.359 22.5798C36.0355 24.2129 36.2125 26.0099 35.8676 27.7436C35.5228 29.4773 34.6715 31.0698 33.4216 32.3198C32.1717 33.5697 30.5792 34.4209 28.8455 34.7658C27.1118 35.1106 25.3147 34.9336 23.6816 34.2572C22.0485 33.5807 20.6527 32.4352 19.6706 30.9654C18.6885 29.4956 18.1643 27.7677 18.1643 26C18.167 23.6305 19.1095 21.3587 20.785 19.6832C22.4606 18.0077 24.7323 17.0652 27.1018 17.0625ZM27.1018 31.6875C28.2267 31.6875 29.3263 31.3539 30.2617 30.729C31.197 30.104 31.9259 29.2158 32.3564 28.1765C32.7869 27.1373 32.8995 25.9937 32.6801 24.8904C32.4606 23.7872 31.9189 22.7737 31.1235 21.9783C30.3281 21.1829 29.3147 20.6412 28.2114 20.4218C27.1082 20.2023 25.9646 20.315 24.9253 20.7454C23.8861 21.1759 22.9978 21.9049 22.3729 22.8402C21.7479 23.7755 21.4143 24.8751 21.4143 26C21.416 27.5079 22.0158 28.9536 23.082 30.0198C24.1483 31.086 25.5939 31.6858 27.1018 31.6875Z" fill="#999999"/>
<path d="M4.8039 32.7355L8.03054 30.0794C7.45855 27.3899 7.45855 24.6101 8.03054 21.9206L4.8039 19.2645C4.43176 18.9596 4.18032 18.5321 4.0946 18.0587C4.00889 17.5853 4.0945 17.0969 4.33611 16.6808L7.64826 10.9443C7.8877 10.5269 8.26797 10.2084 8.7209 10.0459C9.17384 9.88346 9.66984 9.8876 10.12 10.0576L14.0363 11.5249C16.0765 9.68162 18.4834 8.29053 21.099 7.44291L21.7862 3.32241C21.864 2.84754 22.1083 2.4159 22.4755 2.10485C22.8427 1.7938 23.3086 1.62369 23.7898 1.625H30.4139C30.8951 1.62371 31.361 1.79381 31.7282 2.10484C32.0953 2.41586 32.3397 2.84747 32.4175 3.32231L33.1043 7.44291C35.7199 8.29051 38.1268 9.6816 40.167 11.5249L44.0837 10.0574C44.5338 9.88751 45.0298 9.88343 45.4826 10.0459C45.9355 10.2084 46.3157 10.5268 46.5551 10.9442L49.8672 16.6811C50.1087 17.0972 50.1943 17.5857 50.1085 18.0591C50.0227 18.5325 49.7712 18.9598 49.399 19.2647L46.1726 21.9206C46.7446 24.6101 46.7446 27.3899 46.1726 30.0794L49.3993 32.7355C49.7714 33.0404 50.0229 33.4679 50.1086 33.9413C50.1943 34.4147 50.1088 34.9031 49.8672 35.3192L46.555 41.0557C46.3156 41.4731 45.9353 41.7916 45.4824 41.954C45.0294 42.1165 44.5335 42.1124 44.0833 41.9424L40.1669 40.4751C38.1267 42.3184 35.7198 43.7095 33.1042 44.5571L32.4174 48.6776C32.3396 49.1524 32.0953 49.584 31.7281 49.8951C31.361 50.2061 30.8951 50.3763 30.4139 50.375H23.7898C23.3086 50.3763 22.8427 50.2062 22.4755 49.8952C22.1084 49.5842 21.864 49.1525 21.7862 48.6777L21.0993 44.5571C18.4837 43.7095 16.0768 42.3184 14.0366 40.4751L10.12 41.9426C9.66986 42.1125 9.17394 42.1165 8.72108 41.954C8.26822 41.7916 7.88801 41.4731 7.64857 41.0558L4.33672 35.3189C4.09509 34.9029 4.0094 34.4146 4.095 33.9412C4.1806 33.4679 4.4319 33.0405 4.8039 32.7355ZM9.94662 38.5368L14.8327 36.7062L15.5726 37.4511C17.6082 39.5029 20.1545 40.9744 22.9486 41.714L23.9642 41.9817L24.8219 47.125H29.381L30.2384 41.9817L31.254 41.714C34.0481 40.9744 36.5943 39.5029 38.63 37.4511L39.3699 36.7062L44.2568 38.5368L46.5359 34.5883L42.5111 31.275L42.7853 30.2621C43.5395 27.4707 43.5395 24.5293 42.7853 21.7379L42.5111 20.7251L46.5359 17.4118L44.2563 13.4632L39.3702 15.2938L38.6303 14.5489C36.5946 12.4971 34.0484 11.0256 31.2543 10.286L30.2387 10.0183L29.3814 4.875H24.8219L23.9645 10.0183L22.9489 10.286C20.1548 11.0256 17.6086 12.4971 15.5729 14.5489L14.833 15.2938L9.94693 13.4632L7.66716 17.4117L11.692 20.7251L11.4178 21.7379C10.6636 24.5293 10.6636 27.4707 11.4178 30.2621L11.692 31.275L7.66716 34.5882L9.94662 38.5368Z" fill="#999999"/>
</g>
<defs>
<filter id="filter0_d_21_31" x="-4" y="0" width="60" height="60" filterUnits="userSpaceOnUse" color-interpolation-filters="sRGB">
<feFlood flood-opacity="0" result="BackgroundImageFix"/>
<feColorMatrix in="SourceAlpha" type="matrix" values="0 0 0 0 0 0 0 0 0 0 0 0 0 0 0 0 0 0 127 0" result="hardAlpha"/>
<feOffset dy="4"/>
<feGaussianBlur stdDeviation="2"/>
<feComposite in2="hardAlpha" operator="out"/>
<feColorMatrix type="matrix" values="0 0 0 0 0 0 0 0 0 0 0 0 0 0 0 0 0 0 0.25 0"/>
<feBlend mode="normal" in2="BackgroundImageFix" result="effect1_dropShadow_21_31"/>
<feBlend mode="normal" in="SourceGraphic" in2="effect1_dropShadow_21_31" result="shape"/>
</filter>
</defs>
</svg>
