<svg width="56" height="56" viewBox="0 0 56 56" fill="none" xmlns="http://www.w3.org/2000/svg">
<path d="M44.1766 26.1516L23.6578 11.8672C22.5641 11.0578 20.3109 11.4625 20.1469 13.7047V42.2734C20.2672 44.9203 22.8484 44.7672 23.6578 44.1109L44.1766 29.8266C44.9094 29.3781 45.9484 27.6391 44.1766 26.1516ZM24.6094 37.9969V17.9812L38.9813 27.9891L24.6094 37.9969Z" fill="#999999" stroke="#999999" stroke-width="0.390625"/>
<path d="M48.2125 1.20312H7.7875C4.15625 1.20312 1.20312 4.15625 1.20312 7.7875V48.2016C1.20312 51.8438 4.15625 54.7969 7.7875 54.7969H48.2016C51.8328 54.7969 54.7859 51.8438 54.7859 48.2125V7.7875C54.7969 4.15625 51.8438 1.20312 48.2125 1.20312ZM50.3344 48.2125C50.3344 49.3828 49.3828 50.3344 48.2125 50.3344H7.7875C6.61719 50.3344 5.66563 49.3828 5.66563 48.2125V7.7875C5.66563 6.61719 6.61719 5.66563 7.7875 5.66563H48.2016C49.3719 5.66563 50.3234 6.61719 50.3234 7.7875V48.2125H50.3344Z" fill="#999999" stroke="#999999" stroke-width="0.390625"/>
<path d="M13.0922 11.4844C11.8562 11.4844 10.8609 12.4797 10.8609 13.7156V42.2844C10.8609 43.5203 11.8562 44.5156 13.0922 44.5156C14.3281 44.5156 15.3234 43.5203 15.3234 42.2844V13.7156C15.3234 12.4797 14.3281 11.4844 13.0922 11.4844Z" fill="#999999" stroke="#999999" stroke-width="0.390625"/>
</svg>
